<svg width="38" height="38" viewBox="0 0 38 38" fill="none" xmlns="http://www.w3.org/2000/svg">
<g clip-path="url(#clip0_32_295)">
<path d="M21.3349 27.1097C21.1889 27.1097 21.043 27.0808 20.8971 27.0518C18.533 26.7622 16.2273 26.9939 14.126 27.66C9.36866 29.1661 5.60369 32.9314 4.14439 38H0C0.204301 37.3338 0.379416 36.8414 0.379416 36.8414C2.80184 28.9634 9.68971 23.4893 17.8909 23.0259C18.6206 22.9969 19.3502 22.9969 20.0507 23.0259C22.619 23.1707 25.0998 23.8369 27.3763 24.9085C32.2504 27.2256 36.1029 31.5122 37.6498 36.8125C37.6498 36.8125 37.7957 37.3338 38 38.0289H33.8556C32.2212 32.3231 27.3763 28.0365 21.3641 27.1387L21.3349 27.1097Z" fill="#A2D2CA"/>
<path d="M19 22.3018C15.9939 22.3018 13.1628 21.1433 11.0323 19.0579C8.90169 16.9436 7.73425 14.1631 7.73425 11.1509C7.73425 5.01067 12.7834 0.0289634 18.9708 0C21.977 0 24.808 1.15854 26.9386 3.2439C29.0691 5.35823 30.2366 8.13872 30.2366 11.1509C30.2366 17.2912 25.1874 22.3018 19 22.3018ZM24.1075 6.02439C22.7066 4.66311 20.8971 3.91006 18.9708 3.91006H18.9416C17.0154 3.91006 15.1766 4.69207 13.8049 6.08232C12.4332 7.47256 11.6743 9.29726 11.6743 11.2088C11.6743 13.1204 12.4624 14.9451 13.8633 16.3064C15.2642 17.6677 17.1029 18.4207 19.0292 18.4207C23.0568 18.4207 26.3257 15.1189 26.3257 11.122C26.3257 9.21037 25.5376 7.38567 24.1367 6.02439H24.1075Z" fill="#A2D2CA"/>
</g>
<defs>
<clipPath id="clip0_32_295">
<rect width="38" height="38" fill="white"/>
</clipPath>
</defs>
</svg>
