<svg width="42" height="41" viewBox="0 0 42 41" fill="none" xmlns="http://www.w3.org/2000/svg">
<g clip-path="url(#clip0_167_624)">
<path d="M40.7468 7.06423H39.4719L25.6163 6.64611L12.4582 6.25122C11.929 6.25122 11.5441 6.2512 11.4238 5.57754C11.3804 5.42276 11.3157 5.2743 11.2314 5.13618C10.7262 3.99793 10.2451 2.81323 9.76399 1.72144C9.67342 1.44314 9.49472 1.1993 9.25305 1.02427C9.01138 0.849236 8.71893 0.75184 8.41691 0.74581L6.94959 0.606439L1.58531 0.0953875C1.39382 0.0606745 1.19696 0.0650961 1.00735 0.108325C0.817734 0.151554 0.639565 0.232628 0.484376 0.346376C0.329188 0.460124 0.200428 0.604008 0.106315 0.768743C0.0122015 0.933478 -0.0451364 1.11543 -0.0620142 1.30287C-0.0788921 1.4903 -0.0549432 1.67907 0.00831253 1.85702C0.0715683 2.03497 0.172728 2.19816 0.305256 2.33607C0.437783 2.47397 0.598753 2.58355 0.777796 2.65773C0.956839 2.73192 1.14993 2.76907 1.34474 2.7668L3.24511 2.95264L7.142 3.34753C7.22629 3.34349 7.30964 3.3663 7.37919 3.41247C7.44873 3.45864 7.50062 3.52561 7.52689 3.60306C8.0561 4.88068 8.60935 6.13507 9.16261 7.41269C9.71588 8.69031 10.4135 10.2931 11.063 11.7334C11.7125 13.1736 12.3379 14.73 12.9874 16.2166L14.5991 19.9334C15.0321 20.9322 15.4651 21.9311 15.9221 22.93C16.3792 23.9288 16.3791 23.8824 15.6334 24.6489C14.7436 25.4889 14.0111 26.4713 13.4685 27.5526C13.1409 28.14 13.0506 28.8238 13.215 29.4718C13.3794 30.1197 13.7868 30.6857 14.3585 31.0603C15.1213 31.5671 16.0309 31.8274 16.9565 31.8036H39.2795C39.6565 31.8041 40.0191 31.6644 40.2923 31.4135C40.5655 31.1627 40.7283 30.8199 40.7468 30.4563C40.7504 30.2714 40.7145 30.0878 40.6414 29.9169C40.5683 29.746 40.4595 29.5914 40.3218 29.4628C40.1842 29.3343 40.0206 29.2344 39.8413 29.1696C39.662 29.1047 39.4707 29.0762 39.2795 29.0858H17.221C16.9088 29.1086 16.5952 29.1086 16.2829 29.0858C16.0424 29.0858 15.9221 28.8999 16.0905 28.6444C16.1762 28.4568 16.281 28.2778 16.4032 28.1101C17.0286 27.39 17.6781 26.6699 18.2795 25.9498C18.3803 25.8163 18.51 25.7056 18.6595 25.6254C18.8091 25.5451 18.9749 25.4973 19.1455 25.4852L25.063 24.9045L31.9668 24.2308L38.8224 23.5339C39.1653 23.5405 39.4974 23.4181 39.7487 23.1928C40 22.9674 40.1509 22.6567 40.1695 22.326C40.362 21.0484 40.5544 19.7707 40.7228 18.4931C40.8912 17.2155 41.0355 15.8217 41.2039 14.4976C41.4444 12.5928 41.7331 10.688 41.9736 8.80644C42.0406 8.61305 42.0604 8.40732 42.0316 8.20532C42.0027 8.00331 41.9259 7.81051 41.8071 7.64188C41.6884 7.47325 41.5309 7.33339 41.347 7.2332C41.1631 7.133 40.9577 7.07516 40.7468 7.06423ZM38.3413 15.4501L37.6919 20.3515C37.6919 20.6302 37.5716 20.7928 37.2348 20.8161L33.6025 21.1877L29.441 21.5826L23.5956 22.1402L20.1558 22.5118C19.9078 22.489 19.6581 22.489 19.4101 22.5118C19.0011 22.5118 18.8568 22.5118 18.7365 22.0937L16.4994 16.8903L14.4067 12.0353C13.9977 11.0597 13.5407 10.0841 13.1077 9.10843C13.1077 9.10843 13.1077 8.94584 13.1077 8.82969C13.5407 8.82969 13.9496 8.82969 14.3345 8.82969L21.551 9.06196L32.3997 9.41043L38.6781 9.61948C39.0389 9.61948 39.1111 9.61946 39.063 10.0376L38.3413 15.4501Z" fill="white"/>
<path d="M36.2268 32.684C35.6618 32.6745 35.1006 32.775 34.5767 32.9794C34.0528 33.1839 33.5769 33.4881 33.1774 33.874C32.7778 34.2599 32.4627 34.7194 32.251 35.2253C32.0393 35.7312 31.9352 36.2732 31.945 36.8188C31.9402 37.6431 32.1893 38.4502 32.6606 39.1376C33.1319 39.8249 33.8041 40.3615 34.5919 40.6791C35.3797 40.9967 36.2474 41.0809 37.0849 40.9212C37.9224 40.7615 38.6918 40.3651 39.2954 39.7822C39.8991 39.1993 40.3097 38.4562 40.4751 37.6474C40.6404 36.8387 40.5531 36.0007 40.2242 35.24C39.8953 34.4793 39.3398 33.8301 38.628 33.375C37.9162 32.9199 37.0804 32.6794 36.2268 32.684ZM36.2268 38.3054C35.8352 38.2877 35.4654 38.1265 35.1928 37.8546C34.9201 37.5826 34.7651 37.2205 34.7594 36.842C34.7656 36.4619 34.9248 36.099 35.2031 35.8302C35.4815 35.5614 35.8572 35.4078 36.2508 35.4018C36.4642 35.3756 36.6809 35.3937 36.8866 35.4547C37.0922 35.5157 37.282 35.6183 37.4434 35.7557C37.6048 35.893 37.734 36.0619 37.8225 36.2512C37.9111 36.4406 37.9569 36.6459 37.9569 36.8536C37.9569 37.0613 37.9111 37.2667 37.8225 37.456C37.734 37.6453 37.6048 37.8142 37.4434 37.9516C37.282 38.0889 37.0922 38.1915 36.8866 38.2525C36.6809 38.3135 36.4642 38.3316 36.2508 38.3054H36.2268Z" fill="white"/>
<path d="M17.5841 32.6606C16.4463 32.6668 15.3573 33.1076 14.555 33.8867C13.7527 34.6658 13.3023 35.72 13.3023 36.8187C13.3023 37.9154 13.7535 38.967 14.5564 39.7425C15.3594 40.5179 16.4485 40.9536 17.5841 40.9536C18.7197 40.9536 19.8088 40.5179 20.6118 39.7425C21.4148 38.967 21.8659 37.9154 21.8659 36.8187C21.8597 35.7218 21.4073 34.6712 20.6064 33.8934C19.8054 33.1155 18.7199 32.6728 17.5841 32.6606ZM17.5841 38.3054C17.3707 38.3315 17.154 38.3134 16.9484 38.2524C16.7428 38.1914 16.553 38.0888 16.3916 37.9515C16.2302 37.8142 16.101 37.6452 16.0125 37.4559C15.9239 37.2666 15.8781 37.0613 15.8781 36.8535C15.8781 36.6458 15.9239 36.4405 16.0125 36.2512C16.101 36.0619 16.2302 35.8929 16.3916 35.7556C16.553 35.6183 16.7428 35.5157 16.9484 35.4547C17.154 35.3936 17.3707 35.3756 17.5841 35.4017C17.9501 35.4465 18.2866 35.6187 18.5306 35.886C18.7745 36.1532 18.9091 36.4973 18.9091 36.8535C18.9091 37.2098 18.7745 37.5538 18.5306 37.8211C18.2866 38.0884 17.9501 38.2606 17.5841 38.3054Z" fill="white"/>
</g>
<defs>
<clipPath id="clip0_167_624">
<rect width="42" height="41" fill="white"/>
</clipPath>
</defs>
</svg>
