<svg width="47" height="38" viewBox="0 0 47 38" fill="none" xmlns="http://www.w3.org/2000/svg">
<g clip-path="url(#clip0_262_52)">
<rect width="46.4899" height="37.1705" fill="none"/>
<path d="M15.307 22.2792V24.5613C15.307 27.7792 17.9273 30.397 21.1482 30.397H33.4282L38.6481 36.921C38.777 37.0819 38.9692 37.1702 39.1671 37.1702C39.2478 37.1702 39.3295 37.1556 39.4082 37.1247C39.6788 37.0192 39.8495 36.7505 39.8296 36.4609L39.4112 30.3966H40.6488C43.8697 30.3966 46.4899 27.7789 46.4899 24.5609V14.2165C46.4899 10.9986 43.8697 8.38083 40.6488 8.38083H21.1482C17.9273 8.38083 15.307 10.9986 15.307 14.2165V22.2792ZM12.896 20.9522C12.6941 20.9522 12.5032 21.0438 12.3773 21.2014L8.21668 26.4018L8.54375 21.6612C8.55637 21.4777 8.49229 21.2973 8.36677 21.1629C8.24125 21.0285 8.06526 20.9522 7.88131 20.9522H5.90724C3.3823 20.9522 1.32855 18.9001 1.32855 16.3778V5.90138C1.32855 3.3788 3.38264 1.32697 5.90724 1.32697H25.6558C28.1808 1.32697 30.2349 3.37914 30.2349 5.90138V8.29424H31.5541L31.5631 5.90138C31.5628 2.64731 28.9126 0 25.6555 0H5.90691C2.64979 0 0 2.64731 0 5.90138V16.3775C0 19.6316 2.64979 22.2789 5.90691 22.2789H7.16938L6.74502 28.4294C6.72509 28.719 6.89577 28.9877 7.16639 29.0932C7.24509 29.1237 7.32644 29.1387 7.40747 29.1387C7.60504 29.1387 7.79763 29.0504 7.92647 28.8895L13.2154 22.2792H15.2416V20.9629L12.896 20.9522Z" fill="#5D676F"/>
<g clip-path="url(#clip1_262_52)">
<path d="M15.307 22.2792V24.5613C15.307 27.7792 17.9272 30.397 21.1482 30.397H33.4282L38.6481 36.9211C38.7769 37.082 38.9692 37.1702 39.1671 37.1702C39.2478 37.1702 39.3295 37.1556 39.4082 37.1247C39.6788 37.0193 39.8495 36.7505 39.8295 36.4609L39.4112 30.3967H40.6487C43.8696 30.3967 46.4899 27.7789 46.4899 24.561V14.2166C46.4899 10.9986 43.8696 8.38086 40.6487 8.38086H21.1482C17.9272 8.38086 15.307 10.9986 15.307 14.2166V22.2792Z" fill="#A2D2CA"/>
</g>
</g>
<defs>
<clipPath id="clip0_262_52">
<rect width="46.4899" height="37.1705" fill="white"/>
</clipPath>
<clipPath id="clip1_262_52">
<rect width="46.4899" height="37.1705" fill="white"/>
</clipPath>
</defs>
</svg>
